<svg width="26" height="26" viewBox="0 0 26 26" fill="none" xmlns="http://www.w3.org/2000/svg">
<g clip-path="url(#clip0_596_8785)">
<path d="M14.6532 1.94982C14.4974 1.64561 14.2606 1.39032 13.969 1.21205C13.6774 1.03378 13.3422 0.939453 13.0004 0.939453C12.6586 0.939453 12.3234 1.03378 12.0318 1.21205C11.7401 1.39032 11.5034 1.64561 11.3475 1.94982L1.13324 22.3784C0.990775 22.661 0.922949 22.9755 0.936198 23.2919C0.949446 23.6082 1.04333 23.9157 1.20894 24.1856C1.37454 24.4554 1.60637 24.6785 1.88242 24.8333C2.15844 24.9884 2.46951 25.0703 2.7861 25.0712H23.2146C23.5313 25.0703 23.8423 24.9884 24.1183 24.8333C24.3945 24.6785 24.6262 24.4554 24.7919 24.1856C24.9574 23.9157 25.0513 23.6082 25.0645 23.2919C25.0779 22.9755 25.0099 22.661 24.8675 22.3784L14.6532 1.94982Z" stroke="#C7C2BF" stroke-width="2" stroke-linecap="round" stroke-linejoin="round"/>
<path d="M13 9.28613V15.3218" stroke="#C7C2BF" stroke-width="2" stroke-linecap="round" stroke-linejoin="round"/>
<path d="M13.0004 20.4286C12.744 20.4286 12.5361 20.2208 12.5361 19.9643C12.5361 19.7078 12.744 19.5 13.0004 19.5" stroke="#C7C2BF" stroke-width="2" stroke-linecap="round" stroke-linejoin="round"/>
<path d="M13 20.4286C13.2564 20.4286 13.4643 20.2208 13.4643 19.9643C13.4643 19.7078 13.2564 19.5 13 19.5" stroke="#C7C2BF" stroke-width="2" stroke-linecap="round" stroke-linejoin="round"/>
</g>
<defs>
<clipPath id="clip0_596_8785">
<rect width="26" height="26" fill="white"/>
</clipPath>
</defs>
</svg>
