<svg width="24" height="24" viewBox="0 0 24 24" fill="none" xmlns="http://www.w3.org/2000/svg">
<g clip-path="url(#clip0_390_286)">
<path d="M15.0035 22.255C16.057 22.9346 17.3123 23.2308 18.5585 23.0938C19.8047 22.9567 20.9657 22.3948 21.8463 21.5023L22.6161 20.7496C22.9536 20.4043 23.1426 19.9408 23.1426 19.458C23.1426 18.9753 22.9536 18.5116 22.6161 18.1665L19.3487 14.9332C19.0063 14.5968 18.5456 14.4083 18.0656 14.4083C17.5857 14.4083 17.1249 14.5968 16.7826 14.9332C16.4374 15.2707 15.9738 15.4596 15.491 15.4596C15.0082 15.4596 14.5446 15.2707 14.1994 14.9332L9.0673 9.80104C8.89609 9.63232 8.76013 9.43126 8.66734 9.20953C8.57454 8.9878 8.52675 8.74983 8.52675 8.50947C8.52675 8.26909 8.57454 8.03113 8.66734 7.80939C8.76013 7.58766 8.89609 7.38659 9.0673 7.21787C9.40371 6.87557 9.59221 6.4148 9.59221 5.93485C9.59221 5.45489 9.40371 4.99414 9.0673 4.65181L5.81698 1.40147C5.47172 1.06397 5.00818 0.875 4.52544 0.875C4.04252 0.875 3.57898 1.06397 3.23372 1.40147L2.48098 2.17129C1.58869 3.05185 1.02675 4.21285 0.889607 5.45903C0.752464 6.70523 1.04869 7.96062 1.72841 9.01412C5.26961 14.233 9.77542 18.7272 15.0035 22.255Z" stroke="url(#paint0_linear_390_286)" stroke-width="2" stroke-linecap="round" stroke-linejoin="round"/>
</g>
<defs>
<linearGradient id="paint0_linear_390_286" x1="23.1426" y1="0.875" x2="19.5478" y2="25.82" gradientUnits="userSpaceOnUse">
<stop stop-color="#0099FF"/>
<stop offset="1" stop-color="#004DFF"/>
</linearGradient>
<clipPath id="clip0_390_286">
<rect width="24" height="24" fill="white" transform="matrix(-1 0 0 1 24 0)"/>
</clipPath>
</defs>
</svg>
