<svg width="26" height="26" viewBox="0 0 26 26" fill="none" xmlns="http://www.w3.org/2000/svg">
<g clip-path="url(#clip0_644_5460)">
<path d="M12.8615 24.5171L7.29004 24.9999L7.7729 19.4285L19.3614 7.91423C19.5345 7.73735 19.741 7.5968 19.9691 7.50085C20.197 7.40489 20.4419 7.35547 20.6893 7.35547C20.9367 7.35547 21.1816 7.40489 21.4097 7.50085C21.6377 7.5968 21.8442 7.73735 22.0171 7.91423L24.3757 10.2914C24.5497 10.464 24.6879 10.6694 24.7822 10.8957C24.8766 11.1221 24.9251 11.3648 24.9251 11.6099C24.9251 11.8551 24.8766 12.0979 24.7822 12.3242C24.6879 12.5505 24.5497 12.7559 24.3757 12.9285L12.8615 24.5171Z" stroke="#C7C2BF" stroke-width="2" stroke-linecap="round" stroke-linejoin="round"/>
<path d="M1.56301 7.37734C0.911287 7.26395 0.911287 6.32837 1.56301 6.21499C3.92411 5.80421 5.80202 4.00583 6.31452 1.66471L6.35379 1.48526C6.49479 0.841139 7.41194 0.837129 7.55856 1.47999L7.60625 1.68912C8.13771 4.0192 10.0161 5.80239 12.3707 6.21202C13.0257 6.32598 13.0257 7.26634 12.3707 7.3803C10.0161 7.78993 8.13771 9.57312 7.60625 11.9032L7.55856 12.1123C7.41194 12.7552 6.49479 12.7512 6.35379 12.1071L6.31452 11.9276C5.80202 9.58649 3.92411 7.78811 1.56301 7.37734Z" stroke="#C7C2BF" stroke-width="2" stroke-linecap="round" stroke-linejoin="round"/>
</g>
<defs>
<clipPath id="clip0_644_5460">
<rect width="26" height="26" fill="white"/>
</clipPath>
</defs>
</svg>
