<svg width="24" height="24" viewBox="0 0 24 24" fill="none" xmlns="http://www.w3.org/2000/svg">
<g clip-path="url(#clip0_390_280)">
<path d="M21.4289 3H2.57171C1.62493 3 0.857422 3.76752 0.857422 4.71429V19.2857C0.857422 20.2325 1.62493 21 2.57171 21H21.4289C22.3757 21 23.1431 20.2325 23.1431 19.2857V4.71429C23.1431 3.76752 22.3757 3 21.4289 3Z" stroke="url(#paint0_linear_390_280)" stroke-width="2" stroke-linecap="round" stroke-linejoin="round"/>
<path d="M0.857422 5.14062L10.9031 11.1822C11.2112 11.363 11.5994 11.4621 12.0003 11.4621C12.4012 11.4621 12.7894 11.363 13.0974 11.1822L23.1431 5.14062" stroke="url(#paint1_linear_390_280)" stroke-width="2" stroke-linecap="round" stroke-linejoin="round"/>
</g>
<defs>
<linearGradient id="paint0_linear_390_280" x1="0.857422" y1="3" x2="3.22639" y2="23.3218" gradientUnits="userSpaceOnUse">
<stop stop-color="#0099FF"/>
<stop offset="1" stop-color="#004DFF"/>
</linearGradient>
<linearGradient id="paint1_linear_390_280" x1="0.857422" y1="5.14062" x2="1.15307" y2="12.3623" gradientUnits="userSpaceOnUse">
<stop stop-color="#0099FF"/>
<stop offset="1" stop-color="#004DFF"/>
</linearGradient>
<clipPath id="clip0_390_280">
<rect width="24" height="24" fill="white"/>
</clipPath>
</defs>
</svg>
