<svg width="28" height="28" viewBox="0 0 28 28" fill="none" xmlns="http://www.w3.org/2000/svg">
<path d="M10.4603 4.5L11.3203 2.28C11.4654 1.90413 11.7205 1.58082 12.0524 1.35242C12.3843 1.12403 12.7774 1.00119 13.1803 1H14.8203C15.2232 1.00119 15.6163 1.12403 15.9482 1.35242C16.2801 1.58082 16.5353 1.90413 16.6803 2.28L17.5403 4.5L20.4602 6.18L22.8202 5.82C23.2132 5.76666 23.6132 5.83134 23.9694 6.00584C24.3254 6.18034 24.6216 6.45676 24.8202 6.8L25.6202 8.2C25.8252 8.5487 25.9198 8.95136 25.8912 9.35484C25.8626 9.75832 25.7124 10.1437 25.4602 10.46L24.0002 12.32V15.68L25.5002 17.54C25.7524 17.8563 25.9026 18.2417 25.9312 18.6452C25.9598 19.0486 25.8652 19.4513 25.6602 19.8L24.8602 21.2C24.6616 21.5432 24.3654 21.8196 24.0094 21.9942C23.6532 22.1686 23.2532 22.2334 22.8602 22.18L20.5002 21.82L17.5803 23.5L16.7203 25.72C16.5753 26.0958 16.3201 26.4192 15.9882 26.6476C15.6563 26.876 15.2632 26.9988 14.8603 27H13.1803C12.7774 26.9988 12.3843 26.876 12.0524 26.6476C11.7205 26.4192 11.4654 26.0958 11.3203 25.72L10.4603 23.5L7.54033 21.82L5.18033 22.18C4.78737 22.2334 4.38741 22.1686 4.03129 21.9942C3.67519 21.8196 3.37899 21.5432 3.18033 21.2L2.38033 19.8C2.17533 19.4513 2.08089 19.0486 2.10945 18.6452C2.13801 18.2417 2.28825 17.8563 2.54033 17.54L4.00033 15.68V12.32L2.50033 10.46C2.24825 10.1437 2.09801 9.75832 2.06945 9.35484C2.04089 8.95136 2.13533 8.5487 2.34033 8.2L3.14033 6.8C3.33899 6.45676 3.63519 6.18034 3.99129 6.00584C4.34741 5.83134 4.74737 5.76666 5.14033 5.82L7.50033 6.18L10.4603 4.5ZM10.0003 14C10.0003 14.7911 10.2349 15.5645 10.6744 16.2223C11.114 16.8801 11.7387 17.3928 12.4696 17.6955C13.2005 17.9983 14.0048 18.0775 14.7807 17.9231C15.5566 17.7688 16.2693 17.3878 16.8288 16.8284C17.3882 16.269 17.7691 15.5563 17.9235 14.7804C18.0778 14.0044 17.9986 13.2002 17.6958 12.4693C17.3931 11.7384 16.8804 11.1136 16.2226 10.6741C15.5648 10.2346 14.7914 10 14.0003 10C12.9395 10 11.922 10.4214 11.1719 11.1716C10.4218 11.9217 10.0003 12.9391 10.0003 14Z" stroke="url(#paint0_linear_580_671)" stroke-width="2" stroke-linecap="round" stroke-linejoin="round"/>
<defs>
<linearGradient id="paint0_linear_580_671" x1="2.06445" y1="1" x2="6.62864" y2="30.0351" gradientUnits="userSpaceOnUse">
<stop stop-color="#0099FF"/>
<stop offset="1" stop-color="#004DFF"/>
</linearGradient>
</defs>
</svg>
