<svg width="20" height="20" viewBox="0 0 20 20" fill="none" xmlns="http://www.w3.org/2000/svg">
<g clip-path="url(#clip0_390_331)">
<path d="M10.5714 9.28348C12.5439 9.28348 14.1429 7.6845 14.1429 5.71205C14.1429 3.73961 12.5439 2.14062 10.5714 2.14062C8.59899 2.14062 7 3.73961 7 5.71205C7 7.6845 8.59899 9.28348 10.5714 9.28348Z" stroke="white" stroke-width="2" stroke-linecap="round" stroke-linejoin="round"/>
<path d="M4 19.2828H10.4286H16.8571V18.5084C16.8458 17.4195 16.5586 16.3512 16.0225 15.4035C15.4863 14.4557 14.7187 13.6592 13.7913 13.0885C12.8639 12.5178 11.807 12.1915 10.7193 12.14C10.6223 12.1354 10.5254 12.133 10.4286 12.1328C10.3317 12.133 10.2348 12.1354 10.1378 12.14C9.05013 12.1915 7.99321 12.5178 7.06581 13.0885C6.13843 13.6592 5.37081 14.4557 4.83467 15.4035C4.29854 16.3512 4.01137 17.4195 4 18.5084V19.2828Z" stroke="white" stroke-width="2" stroke-linecap="round" stroke-linejoin="round"/>
</g>
<defs>
<clipPath id="clip0_390_331">
<rect width="20" height="20" fill="white"/>
</clipPath>
</defs>
</svg>
