<svg width="26" height="26" viewBox="0 0 26 26" fill="none" xmlns="http://www.w3.org/2000/svg">
<g clip-path="url(#clip0_644_5471)">
<path d="M24.5697 11.6019C24.8776 11.9859 25.0481 12.4846 25.0481 13.0018C25.0481 13.5189 24.8776 14.0177 24.5697 14.4016C22.6197 16.7626 18.1811 21.359 12.9996 21.359C7.81822 21.359 3.37965 16.7626 1.42964 14.4016C1.12166 14.0177 0.951172 13.5189 0.951172 13.0018C0.951172 12.4846 1.12166 11.9859 1.42964 11.6019C3.37965 9.24102 7.81822 4.64453 12.9996 4.64453C18.1811 4.64453 22.6197 9.24102 24.5697 11.6019Z" stroke="#C7C2BF" stroke-width="2" stroke-linecap="round" stroke-linejoin="round"/>
<path d="M12.9994 16.7176C15.0508 16.7176 16.7137 15.0547 16.7137 13.0033C16.7137 10.952 15.0508 9.28906 12.9994 9.28906C10.9481 9.28906 9.28516 10.952 9.28516 13.0033C9.28516 15.0547 10.9481 16.7176 12.9994 16.7176Z" stroke="#C7C2BF" stroke-width="2" stroke-linecap="round" stroke-linejoin="round"/>
</g>
<defs>
<clipPath id="clip0_644_5471">
<rect width="26" height="26" fill="white"/>
</clipPath>
</defs>
</svg>
